<svg xmlns="http://www.w3.org/2000/svg" version="1.0" width="1024.000000pt" height="1024.000000pt" viewBox="0 0 1024.000000 1024.000000" preserveAspectRatio="xMidYMid meet">
<g transform="translate(0.000000,1024.000000) scale(0.100000,-0.100000)" fill="" stroke="none">
<path d="M5005 8041 c-22 -9 -119 -56 -215 -105 -203 -103 -873 -430 -1070 -522 -74 -34 -375 -181 -667 -326 l-533 -263 0 -1721 0 -1721 163 -78 c89 -43 196 -94 237 -113 41 -19 131 -61 200 -94 69 -33 211 -101 315 -150 255 -120 481 -230 1205 -585 146 -72 299 -147 340 -166 41 -20 82 -42 91 -48 13 -10 93 27 443 200 235 116 429 211 432 211 2 0 183 88 400 196 218 107 544 265 725 349 482 227 548 261 559 291 7 16 9 640 8 1717 l-3 1692 -80 40 c-44 22 -123 60 -175 84 -52 24 -167 78 -255 121 -248 121 -476 230 -482 230 -10 0 -78 34 -103 51 -14 10 -84 43 -155 74 -72 32 -134 61 -140 65 -5 4 -181 91 -390 193 -209 101 -474 231 -590 287 -115 57 -212 104 -215 105 -3 2 -23 -5 -45 -14z m94 -530 c15 -11 63 -36 107 -56 43 -20 160 -77 259 -127 l180 -90 -3 -262 c-2 -143 0 -348 3 -454 l7 -193 147 -70 c80 -39 191 -92 246 -119 l100 -48 5 438 5 438 145 -68 c80 -37 206 -96 280 -130 74 -34 233 -109 353 -168 l217 -105 0 -574 c0 -315 -3 -573 -8 -573 -9 0 -225 61 -497 140 -115 33 -282 81 -370 105 -88 25 -221 63 -295 86 -74 22 -155 46 -180 54 -25 7 -112 33 -195 58 -82 25 -206 62 -275 82 -69 20 -188 56 -265 80 -180 56 -298 92 -515 155 -96 28 -205 61 -242 73 l-68 21 -2 457 -3 457 410 206 c226 112 414 205 418 205 5 1 21 -8 36 -18z m-1351 -1690 c27 -11 49 -17 442 -130 118 -34 267 -78 330 -97 128 -39 229 -69 400 -119 63 -18 223 -65 355 -105 354 -105 761 -222 1160 -332 99 -27 234 -66 300 -85 66 -20 179 -53 251 -73 72 -20 138 -39 147 -43 16 -6 17 -52 17 -575 l0 -570 -202 -100 c-391 -192 -515 -252 -526 -252 -8 0 -11 138 -12 497 0 273 -2 498 -3 499 -3 4 -344 110 -552 173 -93 29 -264 80 -380 116 -115 35 -244 73 -285 85 -41 12 -86 26 -100 31 -14 5 -86 26 -160 48 -74 21 -214 62 -310 90 -252 76 -475 141 -550 161 -78 21 -194 56 -355 106 -66 20 -142 42 -170 49 -27 7 -102 29 -167 49 -64 20 -176 52 -250 70 l-133 34 -5 582 -5 582 40 21 c22 11 85 46 140 77 55 31 190 103 300 160 110 56 211 111 225 120 l25 18 3 -538 2 -538 28 -11z m-665 -1010 c40 -10 151 -42 247 -71 96 -29 216 -63 265 -76 50 -14 118 -34 151 -45 34 -11 99 -30 145 -43 135 -37 521 -152 689 -205 85 -27 223 -71 305 -97 83 -26 213 -66 290 -89 142 -43 448 -135 607 -183 l88 -27 0 -396 c0 -218 2 -423 5 -455 l6 -59 -391 -192 -390 -193 -78 38 c-42 21 -158 79 -257 129 -99 50 -196 98 -216 106 l-37 15 -7 129 c-4 70 -6 268 -3 438 l5 310 -241 79 c-133 44 -247 82 -253 84 -10 3 -13 -79 -13 -388 l0 -392 -23 15 c-13 8 -70 36 -127 62 -182 83 -342 156 -430 197 -47 22 -130 59 -185 83 -55 23 -133 58 -172 76 l-73 34 0 573 c0 396 3 571 10 567 6 -4 43 -15 83 -24z" fill="#dd1724"/>
</g>
</svg>